<svg width="700" height="240" viewBox="0 0 700 240" xmlns="http://www.w3.org/2000/svg">
  <defs>
    <linearGradient id="lumaSource" x1="0" y1="0" x2="1" y2="0">
      <stop offset="0" stop-color="black"/>
      <stop offset="1" stop-color="white"/>
    </linearGradient>

    <filter id="explicitLinearChain" filterUnits="userSpaceOnUse" x="20" y="20" width="200" height="170">
      <feGaussianBlur in="SourceGraphic" stdDeviation="4" result="blur"/>
      <feOffset in="blur" dx="20" dy="14" result="offset"/>
      <feColorMatrix in="offset" type="matrix" values="1 0 0 0 0  0 1 0 0 0  0 0 1 0 0  0 0 0 0.65 0"/>
    </filter>

    <filter id="implicitLinearChain" filterUnits="userSpaceOnUse" x="260" y="20" width="200" height="170">
      <feGaussianBlur stdDeviation="4"/>
      <feOffset dx="20" dy="14"/>
    </filter>

    <filter id="luminanceToAlpha" filterUnits="userSpaceOnUse" x="500" y="20" width="160" height="170">
      <feColorMatrix in="SourceGraphic" type="luminanceToAlpha"/>
    </filter>
  </defs>

  <rect width="700" height="240" fill="#f6f6f6"/>

  <g transform="translate(20 30)">
    <rect x="0" y="0" width="160" height="140" fill="#e5e7eb"/>
    <rect x="28" y="24" width="96" height="92" rx="12" fill="#2563eb" filter="url(#explicitLinearChain)"/>
    <rect x="0" y="0" width="160" height="140" fill="none" stroke="#222" stroke-width="2"/>
  </g>

  <g transform="translate(260 30)">
    <rect x="0" y="0" width="160" height="140" fill="#e5e7eb"/>
    <circle cx="76" cy="70" r="48" fill="#16a34a" filter="url(#implicitLinearChain)"/>
    <rect x="0" y="0" width="160" height="140" fill="none" stroke="#222" stroke-width="2"/>
  </g>

  <g transform="translate(500 30)">
    <rect x="0" y="0" width="160" height="140" fill="#f97316"/>
    <rect x="20" y="22" width="120" height="96" rx="10" fill="url(#lumaSource)" filter="url(#luminanceToAlpha)"/>
    <rect x="0" y="0" width="160" height="140" fill="none" stroke="#222" stroke-width="2"/>
  </g>
</svg>
