<svg width="560" height="180" viewBox="0 0 560 180" xmlns="http://www.w3.org/2000/svg">
  <defs>
    <pattern id="dashPattern" x="0" y="0" width="18" height="18" patternUnits="userSpaceOnUse">
      <rect x="0" y="0" width="18" height="18" fill="#fff8e1" />
      <path d="M0 18 L18 0" stroke="#009688" stroke-width="4" />
      <path d="M-4 4 L4 -4 M14 22 L22 14" stroke="#ff8f00" stroke-width="3" />
    </pattern>
  </defs>

  <rect x="0" y="0" width="560" height="180" fill="#f5f5f5" />

  <g transform="translate(24 24)">
    <text x="0" y="0" font-size="18" fill="#424242">pattern stroke none</text>
    <rect x="0" y="18" width="230" height="110" rx="10" ry="10" fill="#fafafa" stroke="#bdbdbd" stroke-dasharray="6 6" />
    <g transform="translate(26 74) scale(3.6 2.4)">
      <path d="M0 0 L48 0" fill="none" stroke="url(#dashPattern)" stroke-width="8" stroke-linecap="round" />
    </g>

    <text x="278" y="0" font-size="18" fill="#424242">pattern stroke non-scaling</text>
    <rect x="278" y="18" width="230" height="110" rx="10" ry="10" fill="#fafafa" stroke="#bdbdbd" stroke-dasharray="6 6" />
    <g transform="translate(304 74) scale(3.6 2.4)">
      <path d="M0 0 L48 0" fill="none" stroke="url(#dashPattern)" stroke-width="8"
            stroke-linecap="round" vector-effect="non-scaling-stroke" />
    </g>
  </g>
</svg>
