<svg width="520" height="280" viewBox="0 0 520 280" xmlns="http://www.w3.org/2000/svg">
  <rect x="0" y="0" width="520" height="280" fill="#f5f5f5" />

  <g transform="translate(24 24)">
    <text x="0" y="0" font-size="18" fill="#424242">vector-effect none</text>
    <rect x="0" y="18" width="220" height="96" rx="10" ry="10" fill="#fafafa" stroke="#bdbdbd" stroke-dasharray="6 6" />
    <g transform="translate(28 44) scale(4.2)">
      <path d="M0 28 L44 4" fill="none" stroke="#3949ab" stroke-width="5" stroke-linecap="round" />
    </g>

    <text x="258" y="0" font-size="18" fill="#424242">non-scaling-stroke</text>
    <rect x="258" y="18" width="220" height="96" rx="10" ry="10" fill="#fafafa" stroke="#bdbdbd" stroke-dasharray="6 6" />
    <g transform="translate(286 44) scale(4.2)">
      <path d="M0 28 L44 4" fill="none" stroke="#3949ab" stroke-width="5"
            stroke-linecap="round" vector-effect="non-scaling-stroke" />
    </g>
  </g>

  <g transform="translate(24 156)">
    <text x="0" y="0" font-size="18" fill="#424242">non-uniform scale none</text>
    <rect x="0" y="18" width="220" height="96" rx="10" ry="10" fill="#fafafa" stroke="#bdbdbd" stroke-dasharray="6 6" />
    <g transform="translate(34 48) scale(4.8 2.1)">
      <path d="M0 22 L44 4" fill="none" stroke="#3949ab" stroke-width="5" stroke-linecap="round" />
    </g>

    <text x="258" y="0" font-size="18" fill="#424242">non-uniform + non-scaling</text>
    <rect x="258" y="18" width="220" height="96" rx="10" ry="10" fill="#fafafa" stroke="#bdbdbd" stroke-dasharray="6 6" />
    <g transform="translate(292 48) scale(4.8 2.1)">
      <path d="M0 22 L44 4" fill="none" stroke="#3949ab" stroke-width="5"
            stroke-linecap="round" vector-effect="non-scaling-stroke" />
    </g>
  </g>
</svg>
